<svg width="432" height="422" viewBox="0 0 432 422" fill="none" xmlns="http://www.w3.org/2000/svg">
<path d="M240.625 393.121L71.1468 295.33C66.4128 292.624 66.9538 287.755 72.4994 284.509L187.874 217.962C193.42 214.716 201.806 214.445 206.54 217.151L376.018 315.077C380.752 317.782 380.211 322.652 374.665 325.898L259.29 392.445C253.88 395.556 245.494 395.961 240.625 393.121Z" fill="#D4ECFF"/>
<path d="M382.377 122.605L210.059 23.1908C207.895 21.9735 205.866 21.703 204.108 22.3793L203.837 22.5145C203.837 22.5145 203.837 22.5145 203.702 22.5145L198.156 25.2197L204.243 28.1954C204.243 28.3306 204.243 28.4659 204.243 28.4659V169.946C204.243 176.979 208.571 185.23 213.981 188.341L381.566 285.05L382.513 292.895L388.599 289.919C390.628 288.702 391.845 285.997 391.845 282.21V140.73C392.116 133.967 387.788 125.716 382.377 122.605Z" fill="#173D7A"/>
<path d="M382.377 122.605L210.059 23.1908C207.895 21.9735 205.866 21.703 204.108 22.3793L203.837 22.5145C203.837 22.5145 203.837 22.5145 203.702 22.5145L198.156 25.2197L204.243 28.1954C204.243 28.3306 204.243 28.4659 204.243 28.4659V121.659L282.557 183.607L389.005 130.045C387.382 126.934 384.947 124.093 382.377 122.605Z" fill="#396CAA"/>
<path d="M385.217 124.769L368.31 131.803L381.024 141.677L391.709 137.213C390.762 132.614 388.328 127.88 385.217 124.769Z" fill="#274F89"/>
<path d="M376.696 292.354L204.513 192.939C199.103 189.828 194.774 181.578 194.774 174.544V33.0646C194.774 26.0312 199.103 22.785 204.513 25.8959L376.696 125.31C382.106 128.421 386.435 136.672 386.435 143.706V285.185C386.435 292.219 382.106 295.465 376.696 292.354Z" fill="#D4ECFF"/>
<path d="M371.015 281.804L210.194 189.152C205.189 186.312 201.267 178.737 201.267 172.245V42.8032C201.267 36.3108 205.324 33.3351 210.194 36.1756L371.015 128.962C376.02 131.803 379.942 139.377 379.942 145.87V275.311C379.942 281.804 375.885 284.644 371.015 281.804Z" fill="white"/>
<path d="M371.015 281.804L210.194 189.152C205.189 186.312 201.267 178.737 201.267 172.245V42.8032C201.267 36.3108 205.324 33.3351 210.194 36.1756L371.015 128.962C376.02 131.803 379.942 139.377 379.942 145.87V275.311C379.942 281.804 375.885 284.644 371.015 281.804Z" fill="white"/>
<path d="M379.263 296.817L356.134 293.707L206.674 207.412C201.94 204.707 193.554 204.977 188.008 208.224L82.1015 269.36L68.0347 267.466V275.447C67.8995 277.34 68.9815 279.099 71.2809 280.316L240.759 378.107C245.493 380.813 253.879 380.542 259.425 377.296L374.8 310.749C377.91 308.991 379.398 306.691 379.398 304.527V296.817H379.263Z" fill="#173D7A"/>
<path d="M267 242.173L256.315 236.087H139.588L81.9678 269.36L67.9009 267.466V275.447C67.7657 277.34 68.8478 279.099 71.1471 280.316L240.625 378.107C243.195 379.595 246.712 380.136 250.229 379.866L267 242.173Z" fill="#396CAA"/>
<path d="M74.2566 268.278L68.0347 267.466V275.447C67.8995 277.34 68.9815 279.099 71.2809 280.316L74.2566 282.074V268.278Z" fill="#5793CE"/>
<path d="M242.384 378.919C246.983 380.677 253.475 380.272 258.209 377.972V360.253H242.384V378.919Z" fill="#274F89"/>
<path d="M240.625 370.127L71.1468 272.336C66.4128 269.631 66.9538 264.761 72.4994 261.515L187.874 194.968C193.42 191.722 201.806 191.452 206.54 194.157L376.018 292.083C380.752 294.789 380.211 299.658 374.665 302.904L259.29 369.451C253.88 372.562 245.494 372.968 240.625 370.127Z" fill="#D4ECFF"/>
<path d="M374.666 299.928L259.291 366.475C253.746 369.721 245.36 369.992 240.626 367.287L71.1475 269.495C69.5244 268.549 68.5776 267.466 68.1718 266.249C67.3602 268.549 68.4423 270.848 71.1475 272.471L240.626 370.262C245.36 372.968 253.746 372.697 259.291 369.451L374.666 302.904C378.453 300.74 379.806 297.9 378.994 295.33C378.453 296.953 377.101 298.576 374.666 299.928Z" fill="white"/>
<path d="M143.239 240.009L135.53 235.546C134.853 235.14 134.989 234.599 135.665 234.193L144.727 228.918C145.403 228.512 146.485 228.512 147.162 228.783L154.871 233.246C155.548 233.652 155.413 234.193 154.736 234.599L145.674 239.874C144.998 240.28 143.916 240.28 143.239 240.009Z" fill="#173D7A"/>
<path d="M155.142 246.772L147.432 242.309C146.756 241.903 146.891 241.362 147.567 240.956L156.629 235.681C157.306 235.275 158.388 235.275 159.064 235.546L166.774 240.009C167.45 240.415 167.315 240.956 166.639 241.362L157.576 246.637C156.765 247.178 155.683 247.178 155.142 246.772Z" fill="#173D7A"/>
<path d="M166.909 253.67L159.2 249.207C158.523 248.801 158.658 248.26 159.335 247.854L168.397 242.579C169.073 242.173 170.155 242.173 170.832 242.444L178.541 246.907C179.218 247.313 179.082 247.854 178.406 248.26L169.344 253.535C168.668 253.941 167.586 254.076 166.909 253.67Z" fill="#173D7A"/>
<path d="M183.275 247.989L175.566 243.526C174.889 243.12 175.025 242.579 175.701 242.173L183.275 237.845C183.952 237.439 185.034 237.439 185.71 237.71L193.42 242.173C194.096 242.579 193.961 243.12 193.285 243.526L185.71 247.854C185.034 248.26 183.952 248.395 183.275 247.989Z" fill="#173D7A"/>
<path d="M195.179 254.888L187.469 250.424C186.793 250.018 186.928 249.477 187.604 249.071L195.179 244.743C195.855 244.337 196.937 244.337 197.613 244.608L205.323 249.071C205.999 249.477 205.864 250.018 205.188 250.424L197.613 254.752C196.802 255.158 195.72 255.158 195.179 254.888Z" fill="#173D7A"/>
<path d="M206.945 261.65L199.236 257.187C198.559 256.781 198.695 256.24 199.371 255.834L206.945 251.506C207.622 251.1 208.704 251.1 209.38 251.371L217.09 255.834C217.766 256.24 217.631 256.781 216.954 257.187L209.38 261.515C208.704 262.056 207.622 262.056 206.945 261.65Z" fill="#173D7A"/>
<path d="M218.849 268.549L211.139 264.085C210.463 263.679 210.598 263.138 211.274 262.732L218.849 258.404C219.525 257.998 220.607 257.998 221.283 258.269L228.993 262.732C229.669 263.138 229.534 263.679 228.858 264.085L221.283 268.413C220.472 268.819 219.525 268.819 218.849 268.549Z" fill="#173D7A"/>
<path d="M230.751 275.311L223.041 270.848C222.365 270.442 222.5 269.901 223.177 269.495L230.751 265.167C231.427 264.761 232.509 264.761 233.186 265.032L240.895 269.495C241.572 269.901 241.436 270.442 240.76 270.848L233.186 275.176C232.374 275.717 231.292 275.717 230.751 275.311Z" fill="#173D7A"/>
<path d="M242.52 282.21L234.81 277.746C234.134 277.34 234.269 276.799 234.945 276.394L242.52 272.065C243.196 271.659 244.278 271.66 244.954 271.93L252.664 276.394C253.34 276.799 253.205 277.34 252.529 277.746L244.954 282.074C244.278 282.48 243.196 282.48 242.52 282.21Z" fill="#173D7A"/>
<path d="M254.422 288.973L246.712 284.509C246.036 284.103 246.171 283.562 246.847 283.156L254.422 278.828C255.098 278.422 256.18 278.422 256.857 278.693L264.566 283.156C265.243 283.562 265.107 284.103 264.431 284.509L256.857 288.837C256.045 289.378 254.963 289.378 254.422 288.973Z" fill="#173D7A"/>
<path d="M266.189 295.871L258.48 291.407C257.804 291.001 257.939 290.46 258.615 290.055L266.189 285.726C266.866 285.321 267.948 285.321 268.624 285.591L276.334 290.055C277.01 290.46 276.875 291.001 276.199 291.407L268.624 295.735C267.948 296.141 266.866 296.276 266.189 295.871Z" fill="#173D7A"/>
<path d="M278.092 302.634L270.382 298.17C269.706 297.764 269.841 297.223 270.517 296.817L278.092 292.489C278.768 292.083 279.85 292.083 280.526 292.354L288.236 296.817C288.912 297.223 288.777 297.764 288.101 298.17L280.526 302.498C279.715 303.039 278.633 303.039 278.092 302.634Z" fill="#173D7A"/>
<path d="M289.859 309.532L282.15 305.068C281.473 304.662 281.609 304.121 282.285 303.716L289.859 299.387C290.536 298.982 291.618 298.982 292.294 299.252L300.004 303.716C300.68 304.121 300.545 304.662 299.868 305.068L292.294 309.396C291.618 309.802 290.536 309.937 289.859 309.532Z" fill="#173D7A"/>
<path d="M200.724 244.743L193.014 240.28C192.338 239.874 192.473 239.333 193.149 238.927L200.724 234.599C201.4 234.193 202.482 234.193 203.158 234.464L210.868 238.927C211.544 239.333 211.409 239.874 210.733 240.28L203.158 244.608C202.482 245.149 201.4 245.149 200.724 244.743Z" fill="#396CAA"/>
<path d="M188.822 237.845L181.113 233.382C180.436 232.976 180.572 232.435 181.248 232.029L188.822 227.701C189.499 227.295 190.581 227.295 191.257 227.565L198.967 232.029C199.643 232.435 199.508 232.976 198.831 233.382L191.257 237.71C190.445 238.116 189.363 238.251 188.822 237.845Z" fill="#396CAA"/>
<path d="M176.784 230.947L160.283 221.479C159.606 221.073 159.741 220.532 160.418 220.126L167.992 215.798C168.668 215.392 169.751 215.392 170.427 215.663L186.928 225.131C187.605 225.537 187.469 226.078 186.793 226.483L179.219 230.812C178.407 231.217 177.325 231.217 176.784 230.947Z" fill="#173D7A"/>
<path d="M185.169 222.426L171.779 214.716C171.102 214.31 171.238 213.769 171.914 213.363L179.488 209.035C180.165 208.629 181.247 208.629 181.923 208.9L195.313 216.61C195.99 217.015 195.854 217.556 195.178 217.962L187.604 222.29C186.792 222.696 185.71 222.831 185.169 222.426Z" fill="#173D7A"/>
<path d="M212.626 251.641L204.916 247.178C204.24 246.772 204.375 246.231 205.052 245.825L212.626 241.497C213.302 241.091 214.384 241.091 215.061 241.362L222.77 245.825C223.447 246.231 223.311 246.772 222.635 247.178L215.061 251.506C214.249 251.912 213.167 251.912 212.626 251.641Z" fill="#396CAA"/>
<path d="M224.395 258.404L216.685 253.941C216.009 253.535 216.144 252.994 216.82 252.588L224.395 248.26C225.071 247.854 226.153 247.854 226.829 248.125L234.539 252.588C235.215 252.994 235.08 253.535 234.404 253.941L226.829 258.269C226.153 258.81 225.071 258.81 224.395 258.404Z" fill="#173D7A"/>
<path d="M236.296 265.302L228.586 260.839C227.91 260.433 228.045 259.892 228.721 259.486L236.296 255.158C236.972 254.752 238.054 254.752 238.731 255.023L246.44 259.486C247.117 259.892 246.981 260.433 246.305 260.839L238.731 265.167C237.919 265.573 236.837 265.573 236.296 265.302Z" fill="#173D7A"/>
<path d="M248.064 272.065L240.355 267.602C239.678 267.196 239.814 266.655 240.49 266.249L248.064 261.921C248.741 261.515 249.823 261.515 250.499 261.786L258.209 266.249C258.885 266.655 258.75 267.196 258.074 267.602L250.499 271.93C249.823 272.471 248.741 272.471 248.064 272.065Z" fill="#173D7A"/>
<path d="M259.966 278.963L252.256 274.5C251.58 274.094 251.715 273.553 252.391 273.147L259.966 268.819C260.642 268.413 261.724 268.413 262.4 268.684L270.11 273.147C270.786 273.553 270.651 274.094 269.975 274.5L262.4 278.828C261.589 279.234 260.642 279.369 259.966 278.963Z" fill="#173D7A"/>
<path d="M271.868 285.726L264.158 281.263C263.482 280.857 263.617 280.316 264.294 279.91L271.868 275.582C272.544 275.176 273.627 275.176 274.303 275.447L282.013 279.91C282.689 280.316 282.554 280.857 281.877 281.263L274.303 285.591C273.491 286.132 272.409 286.132 271.868 285.726Z" fill="#173D7A"/>
<path d="M283.637 292.624L275.927 288.161C275.251 287.755 275.386 287.214 276.062 286.808L283.637 282.48C284.313 282.074 285.395 282.074 286.071 282.345L293.781 286.808C294.457 287.214 294.322 287.755 293.646 288.161L286.071 292.489C285.395 292.895 284.313 293.03 283.637 292.624Z" fill="#173D7A"/>
<path d="M295.54 299.387L287.83 294.924C287.154 294.518 287.289 293.977 287.966 293.571L295.54 289.243C296.216 288.837 297.298 288.837 297.975 289.108L305.684 293.571C306.361 293.977 306.225 294.518 305.549 294.924L297.975 299.252C297.163 299.793 296.081 299.793 295.54 299.387Z" fill="#173D7A"/>
<path d="M307.307 306.286L299.597 301.822C298.921 301.416 299.056 300.875 299.732 300.469L307.307 296.141C307.983 295.735 309.065 295.735 309.741 296.006L317.451 300.469C318.127 300.875 317.992 301.416 317.316 301.822L309.741 306.15C309.065 306.556 307.983 306.691 307.307 306.286Z" fill="#173D7A"/>
<path d="M328.408 318.459L311.636 308.855C310.96 308.45 311.095 307.909 311.771 307.503L319.346 303.175C320.022 302.769 321.104 302.769 321.78 303.039L338.552 312.643C339.229 313.048 339.093 313.589 338.417 313.995L330.843 318.323C330.031 318.729 328.949 318.729 328.408 318.459Z" fill="#173D7A"/>
<path d="M351.401 305.068L337.334 296.953C336.658 296.547 336.793 296.006 337.47 295.6L345.044 291.272C345.72 290.866 346.802 290.866 347.479 291.137L361.545 299.252C362.222 299.658 362.086 300.199 361.41 300.605L353.836 304.933C353.159 305.474 352.077 305.474 351.401 305.068Z" fill="#173D7A"/>
<path d="M233.32 250.289L225.611 245.825C224.934 245.419 225.07 244.878 225.746 244.473L233.32 240.144C233.997 239.739 235.079 239.739 235.755 240.009L243.465 244.473C244.141 244.878 244.006 245.419 243.329 245.825L235.755 250.153C235.079 250.559 233.997 250.695 233.32 250.289Z" fill="#173D7A"/>
<path d="M221.147 243.255L213.437 238.792C212.761 238.386 212.896 237.845 213.572 237.439L221.147 233.111C221.823 232.705 222.905 232.705 223.581 232.976L231.291 237.439C231.967 237.845 231.832 238.386 231.156 238.792L223.581 243.12C222.905 243.526 221.823 243.661 221.147 243.255Z" fill="#173D7A"/>
<path d="M209.11 236.222L201.401 231.758C200.724 231.353 200.86 230.812 201.536 230.406L209.11 226.078C209.787 225.672 210.869 225.672 211.545 225.942L219.255 230.406C219.931 230.812 219.796 231.353 219.119 231.758L211.545 236.087C210.733 236.628 209.651 236.628 209.11 236.222Z" fill="#396CAA"/>
<path d="M196.937 229.324L189.227 224.86C188.551 224.454 188.686 223.913 189.362 223.508L196.937 219.179C197.613 218.774 198.695 218.774 199.371 219.044L207.081 223.508C207.757 223.913 207.622 224.454 206.946 224.86L199.371 229.189C198.695 229.594 197.613 229.594 196.937 229.324Z" fill="#173D7A"/>
<path d="M245.224 257.052L237.514 252.588C236.838 252.182 236.973 251.641 237.649 251.236L245.224 246.907C245.9 246.502 246.982 246.502 247.658 246.772L255.368 251.236C256.044 251.641 255.909 252.182 255.233 252.588L247.658 256.916C246.847 257.457 245.765 257.457 245.224 257.052Z" fill="#173D7A"/>
<path d="M256.989 263.95L249.28 259.486C248.603 259.08 248.739 258.539 249.415 258.134L256.989 253.805C257.666 253.4 258.748 253.4 259.424 253.67L267.134 258.134C267.81 258.539 267.675 259.08 266.998 259.486L259.424 263.815C258.748 264.22 257.666 264.356 256.989 263.95Z" fill="#173D7A"/>
<path d="M268.895 270.713L261.185 266.249C260.509 265.843 260.644 265.302 261.32 264.897L268.895 260.568C269.571 260.163 270.653 260.163 271.329 260.433L279.039 264.897C279.715 265.302 279.58 265.843 278.904 266.249L271.329 270.577C270.518 271.118 269.436 271.118 268.895 270.713Z" fill="#173D7A"/>
<path d="M280.66 277.611L272.95 273.147C272.274 272.742 272.409 272.201 273.086 271.795L280.66 267.466C281.336 267.061 282.419 267.061 283.095 267.331L290.805 271.795C291.481 272.201 291.346 272.742 290.669 273.147L283.095 277.476C282.419 277.881 281.336 278.017 280.66 277.611Z" fill="#173D7A"/>
<path d="M292.564 284.509L284.855 280.045C284.179 279.64 284.314 279.099 284.99 278.693L292.564 274.365C293.241 273.959 294.323 273.959 294.999 274.229L302.709 278.693C303.385 279.099 303.25 279.64 302.574 280.045L294.999 284.374C294.188 284.779 293.106 284.779 292.564 284.509Z" fill="#173D7A"/>
<path d="M304.331 291.272L296.621 286.808C295.945 286.403 296.08 285.862 296.757 285.456L304.331 281.128C305.007 280.722 306.089 280.722 306.766 280.992L314.475 285.456C315.152 285.862 315.016 286.403 314.34 286.808L306.766 291.137C306.089 291.542 305.007 291.678 304.331 291.272Z" fill="#173D7A"/>
<path d="M316.234 298.17L308.525 293.707C307.848 293.301 307.984 292.76 308.66 292.354L316.234 288.026C316.911 287.62 317.993 287.62 318.669 287.89L326.379 292.354C327.055 292.76 326.92 293.301 326.243 293.707L318.669 298.035C317.858 298.441 316.775 298.441 316.234 298.17Z" fill="#173D7A"/>
<path d="M328.001 304.933L320.291 300.469C319.615 300.064 319.75 299.523 320.427 299.117L328.001 294.789C328.677 294.383 329.759 294.383 330.436 294.653L338.145 299.117C338.822 299.523 338.686 300.064 338.01 300.469L330.436 304.798C329.759 305.203 328.677 305.339 328.001 304.933Z" fill="#173D7A"/>
<path d="M339.904 311.831L332.195 307.368C331.518 306.962 331.654 306.421 332.33 306.015L339.904 301.687C340.581 301.281 341.663 301.281 342.339 301.551L350.049 306.015C350.725 306.421 350.59 306.962 349.913 307.368L342.339 311.696C341.527 312.102 340.445 312.102 339.904 311.831Z" fill="#173D7A"/>
<path d="M227.099 233.382L219.389 228.918C218.713 228.512 218.848 227.971 219.524 227.565L227.099 223.237C227.775 222.831 228.857 222.831 229.533 223.102L237.243 227.565C237.919 227.971 237.784 228.512 237.108 228.918L229.533 233.246C228.857 233.652 227.775 233.787 227.099 233.382Z" fill="#173D7A"/>
<path d="M215.331 226.619L207.621 222.155C206.945 221.749 207.08 221.208 207.757 220.803L215.331 216.474C216.007 216.069 217.089 216.069 217.766 216.339L225.475 220.803C226.152 221.208 226.016 221.749 225.34 222.155L217.766 226.483C216.954 226.889 216.007 226.889 215.331 226.619Z" fill="#173D7A"/>
<path d="M203.564 219.72L195.855 215.257C195.178 214.851 195.314 214.31 195.99 213.904L203.564 209.576C204.241 209.17 205.323 209.17 205.999 209.441L213.709 213.904C214.385 214.31 214.25 214.851 213.574 215.257L205.999 219.585C205.188 220.126 204.106 220.126 203.564 219.72Z" fill="#173D7A"/>
<path d="M191.798 212.958L184.088 208.494C183.412 208.088 183.547 207.547 184.223 207.141L191.798 202.813C192.474 202.407 193.556 202.407 194.233 202.678L201.942 207.141C202.618 207.547 202.483 208.088 201.807 208.494L194.233 212.822C193.421 213.228 192.339 213.363 191.798 212.958Z" fill="#173D7A"/>
<path d="M203.835 205.924L196.125 201.461C195.449 201.055 195.584 200.514 196.261 200.108L198.83 198.62C199.507 198.214 200.589 198.214 201.265 198.485L208.975 202.949C209.651 203.354 209.516 203.895 208.84 204.301L206.27 205.789C205.593 206.33 204.511 206.33 203.835 205.924Z" fill="#173D7A"/>
<path d="M219.255 214.851L211.545 210.388C210.869 209.982 211.004 209.441 211.68 209.035L214.25 207.547C214.927 207.141 216.009 207.141 216.685 207.412L224.395 211.875C225.071 212.281 224.936 212.822 224.259 213.228L221.69 214.716C221.013 215.122 219.931 215.257 219.255 214.851Z" fill="#173D7A"/>
<path d="M231.022 221.614L223.313 217.151C222.637 216.745 222.772 216.204 223.448 215.798L226.018 214.31C226.694 213.904 227.776 213.904 228.453 214.175L236.162 218.638C236.839 219.044 236.703 219.585 236.027 219.991L233.457 221.479C232.646 221.885 231.564 222.02 231.022 221.614Z" fill="#173D7A"/>
<path d="M242.654 228.377L234.945 223.913C234.268 223.508 234.404 222.967 235.08 222.561L237.65 221.073C238.326 220.667 239.408 220.667 240.084 220.938L247.794 225.401C248.47 225.807 248.335 226.348 247.659 226.754L245.089 228.242C244.413 228.647 243.331 228.783 242.654 228.377Z" fill="#173D7A"/>
<path d="M254.422 235.14L246.712 230.676C246.036 230.271 246.171 229.73 246.847 229.324L249.417 227.836C250.094 227.43 251.176 227.43 251.852 227.701L259.562 232.164C260.238 232.57 260.103 233.111 259.426 233.517L256.857 235.005C256.18 235.41 255.098 235.546 254.422 235.14Z" fill="#173D7A"/>
<path d="M319.886 273.012L312.176 268.549C311.5 268.143 311.635 267.602 312.311 267.196L314.881 265.708C315.558 265.302 316.64 265.302 317.316 265.573L325.026 270.036C325.702 270.442 325.567 270.983 324.89 271.389L322.32 272.877C321.644 273.283 320.562 273.283 319.886 273.012Z" fill="#173D7A"/>
<path d="M331.652 279.775L323.943 275.311C323.266 274.906 323.402 274.365 324.078 273.959L326.648 272.471C327.324 272.065 328.406 272.065 329.082 272.336L336.792 276.799C337.468 277.205 337.333 277.746 336.657 278.152L334.087 279.64C333.411 280.045 332.329 280.045 331.652 279.775Z" fill="#173D7A"/>
<path d="M343.422 286.538L335.712 282.074C335.036 281.669 335.171 281.128 335.847 280.722L338.417 279.234C339.094 278.828 340.176 278.828 340.852 279.099L348.562 283.562C349.238 283.968 349.103 284.509 348.426 284.915L345.857 286.403C345.045 286.808 343.963 286.808 343.422 286.538Z" fill="#173D7A"/>
<path d="M355.189 293.301L347.479 288.837C346.803 288.431 346.938 287.89 347.614 287.485L350.184 285.997C350.86 285.591 351.942 285.591 352.619 285.862L360.328 290.325C361.005 290.731 360.869 291.272 360.193 291.678L357.623 293.165C356.812 293.571 355.73 293.707 355.189 293.301Z" fill="#173D7A"/>
<path d="M239.002 240.144L231.292 235.681C230.616 235.275 230.751 234.734 231.428 234.328L239.002 230C239.678 229.594 240.76 229.594 241.437 229.865L249.146 234.328C249.823 234.734 249.687 235.275 249.011 235.681L241.437 240.009C240.625 240.55 239.543 240.55 239.002 240.144Z" fill="#173D7A"/>
<path d="M250.77 247.043L243.06 242.579C242.384 242.173 242.519 241.632 243.195 241.226L250.77 236.898C251.446 236.492 252.528 236.492 253.204 236.763L260.914 241.226C261.59 241.632 261.455 242.173 260.779 242.579L253.204 246.907C252.528 247.313 251.446 247.448 250.77 247.043Z" fill="#173D7A"/>
<path d="M262.673 253.805L254.963 249.342C254.287 248.936 254.422 248.395 255.098 247.989L262.673 243.661C263.349 243.255 264.431 243.255 265.108 243.526L272.817 247.989C273.493 248.395 273.358 248.936 272.682 249.342L265.108 253.67C264.296 254.211 263.214 254.211 262.673 253.805Z" fill="#173D7A"/>
<path d="M274.439 260.704L266.73 256.24C266.053 255.834 266.189 255.293 266.865 254.888L274.439 250.559C275.116 250.153 276.198 250.153 276.874 250.424L284.584 254.888C285.26 255.293 285.125 255.834 284.449 256.24L276.874 260.568C276.198 260.974 275.116 261.109 274.439 260.704Z" fill="#173D7A"/>
<path d="M286.342 267.602L278.632 263.138C277.956 262.732 278.091 262.191 278.767 261.786L286.342 257.457C287.018 257.052 288.1 257.052 288.776 257.322L296.486 261.786C297.162 262.191 297.027 262.732 296.351 263.138L288.776 267.466C287.965 267.872 286.883 267.872 286.342 267.602Z" fill="#173D7A"/>
<path d="M298.109 274.365L290.4 269.901C289.723 269.495 289.859 268.954 290.535 268.549L298.109 264.22C298.786 263.815 299.868 263.815 300.544 264.085L308.254 268.549C308.93 268.954 308.795 269.495 308.118 269.901L300.544 274.229C299.868 274.635 298.786 274.77 298.109 274.365Z" fill="#173D7A"/>
<path d="M310.012 281.263L302.302 276.799C301.626 276.394 301.761 275.852 302.437 275.447L310.012 271.118C310.688 270.713 311.77 270.713 312.446 270.983L320.156 275.447C320.832 275.852 320.697 276.394 320.021 276.799L312.446 281.128C311.635 281.533 310.553 281.533 310.012 281.263Z" fill="#173D7A"/>
<path d="M321.779 288.026L314.07 283.562C313.393 283.156 313.529 282.615 314.205 282.21L321.779 277.881C322.456 277.476 323.538 277.476 324.214 277.746L331.924 282.21C332.6 282.615 332.465 283.156 331.788 283.562L324.214 287.89C323.538 288.296 322.456 288.431 321.779 288.026Z" fill="#173D7A"/>
<path d="M333.682 294.924L325.972 290.46C325.296 290.055 325.431 289.514 326.107 289.108L333.682 284.78C334.358 284.374 335.44 284.374 336.116 284.644L343.826 289.108C344.502 289.514 344.367 290.055 343.691 290.46L336.116 294.789C335.305 295.194 334.223 295.194 333.682 294.924Z" fill="#173D7A"/>
<path d="M171.238 241.091L148.65 228.106C147.973 227.701 148.109 227.16 148.785 226.754L156.359 222.426C157.036 222.02 158.118 222.02 158.794 222.29L181.382 235.275C182.058 235.681 181.923 236.222 181.247 236.628L173.672 240.956C172.996 241.362 171.914 241.362 171.238 241.091Z" fill="#173D7A"/>
<path d="M316.64 324.951L294.052 311.966C293.376 311.561 293.511 311.02 294.187 310.614L301.762 306.286C302.438 305.88 303.52 305.88 304.196 306.15L326.784 319.135C327.461 319.541 327.325 320.082 326.649 320.488L319.075 324.816C318.398 325.357 317.316 325.357 316.64 324.951Z" fill="#173D7A"/>
<path d="M269.3 312.778L261.59 308.314C260.914 307.909 261.049 307.368 261.725 306.962L270.788 301.687C271.464 301.281 272.546 301.281 273.222 301.551L280.932 306.015C281.608 306.421 281.473 306.962 280.797 307.368L271.734 312.643C271.058 313.048 269.976 313.184 269.3 312.778Z" fill="#173D7A"/>
<path d="M183.41 263.138L171.102 256.105C170.426 255.699 170.561 255.158 171.237 254.752L180.299 249.477C180.976 249.071 182.058 249.071 182.734 249.342L195.042 256.375C195.719 256.781 195.584 257.322 194.907 257.728L185.845 263.003C185.033 263.409 183.951 263.544 183.41 263.138Z" fill="#173D7A"/>
<path d="M257.939 306.15L245.63 299.117C244.954 298.711 245.089 298.17 245.765 297.764L254.828 292.489C255.504 292.083 256.586 292.083 257.262 292.354L269.571 299.387C270.247 299.793 270.112 300.334 269.436 300.74L260.373 306.015C259.697 306.556 258.615 306.556 257.939 306.15Z" fill="#173D7A"/>
<path d="M200.453 273.012L188.145 265.979C187.469 265.573 187.604 265.032 188.28 264.626L197.342 259.351C198.019 258.945 199.101 258.945 199.777 259.216L212.085 266.249C212.762 266.655 212.626 267.196 211.95 267.602L202.888 272.877C202.212 273.283 201.13 273.418 200.453 273.012Z" fill="#173D7A"/>
<path d="M199.912 259.216L253.204 290.055C253.88 290.46 253.88 291.001 253.204 291.407L244.007 296.682C243.33 297.088 242.248 297.088 241.572 296.682L188.28 265.843L199.912 259.216Z" fill="#173D7A"/>
<path d="M302.438 325.222L310.959 330.091C311.5 330.361 311.365 330.902 310.824 331.173L307.172 333.337C306.631 333.608 305.684 333.743 305.143 333.472L296.622 328.603C296.081 328.333 296.216 327.792 296.757 327.521L300.409 325.357C301.085 324.951 301.897 324.816 302.438 325.222Z" fill="#173D7A"/>
<path d="M290.535 318.323L299.057 323.193C299.598 323.463 299.463 324.004 298.921 324.275L295.27 326.439C294.728 326.709 293.782 326.845 293.241 326.574L284.719 321.705C284.178 321.434 284.314 320.893 284.855 320.623L288.507 318.459C289.183 318.053 289.994 318.053 290.535 318.323Z" fill="#173D7A"/>
<path d="M278.633 311.425L287.154 316.295C287.695 316.565 287.56 317.106 287.019 317.377L283.367 319.541C282.826 319.811 281.879 319.947 281.338 319.676L272.817 314.807C272.276 314.536 272.411 313.995 272.952 313.725L276.604 311.561C277.281 311.155 278.227 311.155 278.633 311.425Z" fill="#173D7A"/>
<path d="M297.027 314.536L305.548 319.406C306.089 319.676 305.954 320.217 305.413 320.488L301.761 322.652C301.22 322.922 300.273 323.057 299.732 322.787L291.211 317.918C290.67 317.647 290.805 317.106 291.346 316.836L294.998 314.672C295.674 314.266 296.486 314.266 297.027 314.536Z" fill="#173D7A"/>
<path opacity="0.4" d="M279.579 154.256L223.312 121.794C221.959 120.982 220.877 118.818 220.877 117.06V72.8304C220.877 70.9368 221.959 70.1253 223.312 70.9368L279.579 103.399C280.931 104.21 282.014 106.374 282.014 108.133V152.362C282.149 154.256 280.931 155.067 279.579 154.256Z" fill="#D4ECFF"/>
<path d="M240.355 124.364L239.949 124.093C238.461 123.282 237.244 120.982 237.244 119.089V97.9884C237.244 96.0948 238.461 95.1479 239.949 95.9595L240.355 96.23C241.843 97.0416 243.06 99.3409 243.06 101.235V122.335C243.06 124.364 241.843 125.31 240.355 124.364Z" fill="#B2D3EA"/>
<path d="M251.717 130.991L251.312 130.721C249.824 129.909 248.606 127.61 248.606 125.716V113.408C248.606 111.514 249.824 110.567 251.312 111.379L251.717 111.649C253.205 112.461 254.423 114.76 254.423 116.654V128.962C254.287 130.856 253.205 131.803 251.717 130.991Z" fill="#B2D3EA"/>
<path d="M262.943 137.484L262.537 137.213C261.049 136.402 259.832 134.102 259.832 132.209V102.858C259.832 100.964 261.049 100.017 262.537 100.829L262.943 101.099C264.431 101.911 265.648 104.21 265.648 106.104V135.455C265.648 137.484 264.431 138.295 262.943 137.484Z" fill="#396CAA"/>
<path d="M333.141 142.353L298.245 122.2C296.892 121.388 295.945 119.494 295.945 117.736C295.945 115.978 297.027 115.166 298.245 115.978L333.141 136.131C334.494 136.943 335.441 138.836 335.441 140.595C335.576 142.353 334.494 143.165 333.141 142.353Z" fill="#B2D3EA"/>
<path d="M310.688 141.677L298.245 134.508C296.892 133.696 295.945 131.803 295.945 130.044C295.945 128.286 297.027 127.475 298.245 128.286L310.688 135.455C312.041 136.266 312.988 138.16 312.988 139.918C313.123 141.677 312.041 142.488 310.688 141.677Z" fill="#B2D3EA"/>
<path d="M331.654 153.85L319.211 146.681C317.858 145.87 316.911 143.976 316.911 142.218C316.911 140.459 317.993 139.648 319.211 140.459L331.654 147.628C333.007 148.44 333.954 150.333 333.954 152.092C333.954 153.715 332.872 154.526 331.654 153.85Z" fill="#396CAA"/>
<path d="M357.895 168.999L340.041 158.719C338.688 157.908 337.741 156.014 337.741 154.256C337.741 152.497 338.823 151.686 340.041 152.497L357.895 162.777C359.247 163.588 360.194 165.482 360.194 167.24C360.194 168.999 359.247 169.81 357.895 168.999Z" fill="#B2D3EA"/>
<path d="M341.933 171.974L298.245 146.816C296.892 146.005 295.945 144.111 295.945 142.353C295.945 140.595 297.027 139.783 298.245 140.595L341.933 165.753C343.286 166.564 344.232 168.458 344.232 170.216C344.232 171.974 343.15 172.786 341.933 171.974Z" fill="#B2D3EA"/>
<path d="M360.193 194.698L298.245 159.125C296.892 158.313 295.945 156.42 295.945 154.661C295.945 152.903 297.027 152.092 298.245 152.903L360.193 188.476C361.545 189.287 362.492 191.181 362.492 192.939C362.627 194.698 361.545 195.509 360.193 194.698Z" fill="#396CAA"/>
<path d="M365.468 161.019L342.88 148.034C341.528 147.222 340.581 145.329 340.581 143.57C340.581 141.812 341.663 141 342.88 141.812L365.468 154.797C366.821 155.608 367.768 157.502 367.768 159.26C367.768 160.883 366.821 161.695 365.468 161.019Z" fill="#B2D3EA"/>
<path d="M231.832 161.965L220.741 155.608V168.322L231.832 174.68V161.965Z" fill="#396CAA"/>
<path d="M249.145 161.424L238.189 155.067V178.332L249.145 184.689V161.424Z" fill="#D4ECFF"/>
<path d="M266.593 178.196L255.637 171.839V188.476L266.593 194.833V178.196Z" fill="#D4ECFF"/>
<path d="M284.041 183.471L272.95 177.114V198.485L284.041 204.842V183.471Z" fill="#D4ECFF"/>
<path d="M301.491 194.833L290.399 188.476V208.494L301.491 214.851V194.833Z" fill="#396CAA"/>
<path d="M318.804 199.702L307.848 193.345V218.638L318.804 224.996V199.702Z" fill="#173D7A"/>
<path d="M336.252 207.141L325.296 200.784V228.648L336.252 235.005V207.141Z" fill="#D4ECFF"/>
<path d="M353.699 210.388L342.607 204.031V238.657L353.699 245.014V210.388Z" fill="#396CAA"/>
<path d="M430.877 157.554L430.272 155.196L423.197 157.009L423.801 159.367L430.877 157.554Z" fill="#5793CE"/>
<path d="M427.386 160.945L426.781 158.586L419.706 160.399L420.31 162.757L427.386 160.945Z" fill="#5793CE"/>
<path d="M423.798 164.5L423.193 162.141L416.118 163.954L416.722 166.313L423.798 164.5Z" fill="#5793CE"/>
<path d="M420.254 168.076L419.649 165.718L412.574 167.531L413.179 169.89L420.254 168.076Z" fill="#5793CE"/>
<path d="M283.501 303.716L261.319 290.866L239.001 303.716L261.319 316.565L283.501 303.716Z" fill="#274F89"/>
<path d="M213.437 306.015L191.255 293.165L169.072 306.015L191.255 318.864L213.437 306.015Z" fill="#274F89"/>
<path d="M166.503 279.099L144.185 266.249L122.003 279.099L144.185 291.813L166.503 279.099Z" fill="#274F89"/>
<path d="M191.255 306.015V237.574L213.437 224.725V293.165L191.255 306.015Z" fill="#C13D1A"/>
<path d="M213.436 224.725L191.254 211.875L169.071 224.725L191.254 237.574L213.436 224.725Z" fill="#EF602E"/>
<path d="M191.254 237.574L169.071 224.725V293.165L191.254 306.015V237.574Z" fill="#5793CE"/>
<path d="M191.255 306.015V237.574L213.437 224.725V293.165L191.255 306.015Z" fill="#396CAA"/>
<path d="M213.436 224.725L191.254 211.875L169.071 224.725L191.254 237.574L213.436 224.725Z" fill="#D4ECFF"/>
<path d="M238.458 333.608V295.059L260.64 282.21V320.758L238.458 333.608Z" fill="#173D7A"/>
<path d="M238.458 295.059L216.141 282.21V320.758L238.458 333.608V295.059Z" fill="#396CAA"/>
<path d="M260.641 282.21L238.459 269.495L216.142 282.21L238.459 295.059L260.641 282.21Z" fill="#D4ECFF"/>
<path d="M144.185 279.099V184.959L166.502 172.11V266.249L144.185 279.099Z" fill="#D4ECFF"/>
<path d="M144.184 184.959L122.002 172.11V266.249L144.184 279.099V184.959Z" fill="#396CAA"/>
<path d="M166.503 172.11L144.185 159.395L122.003 172.11L144.185 184.959L166.503 172.11Z" fill="#5793CE"/>
<path d="M131.065 225.401C131.065 225.401 127.413 223.508 125.114 226.348C122.814 229.053 119.703 235.546 119.568 240.009C119.433 244.337 123.085 244.067 125.114 243.12C127.278 242.038 133.5 233.111 133.77 231.353C134.176 229.594 133.364 227.16 132.688 226.754C132.147 226.078 131.065 225.401 131.065 225.401Z" fill="#5793CE"/>
<path d="M131.742 224.455L131.877 228.242C131.877 229.053 131.471 229.865 130.795 230.271C130.119 230.676 129.172 230.947 127.955 230.676C125.25 230.271 124.979 229.459 124.709 225.672C124.438 221.885 131.742 224.455 131.742 224.455Z" fill="#D4ECFF"/>
<path d="M117.54 218.097C117.54 218.097 113.888 216.204 111.588 219.044C109.289 221.749 106.178 228.242 106.043 232.705C105.907 237.033 109.559 236.763 111.588 235.816C113.752 234.734 119.974 225.807 120.245 224.049C120.651 222.29 119.839 219.856 119.163 219.45C118.757 218.774 117.54 218.097 117.54 218.097Z" fill="#5793CE"/>
<path d="M118.352 217.151L118.487 220.938C118.487 221.749 118.081 222.561 117.405 222.967C116.729 223.372 115.782 223.643 114.564 223.372C111.859 222.967 111.589 222.155 111.318 218.368C111.183 214.581 118.352 217.151 118.352 217.151Z" fill="#D4ECFF"/>
<path d="M151.084 147.358C150.001 129.639 132.012 149.927 132.012 149.927L119.704 161.965L108.613 174.139C106.448 176.573 105.366 179.684 105.907 182.93L110.371 217.151C110.641 218.909 111.994 220.126 113.752 220.126C114.293 220.126 114.834 220.126 115.375 219.991C119.433 219.315 119.027 215.527 119.027 215.527L118.216 183.471L141.615 169.405C141.48 169.54 152.166 165.076 151.084 147.358Z" fill="#173D7A"/>
<path d="M164.474 154.12C163.392 136.402 145.403 156.69 145.403 156.69L133.094 168.728L122.003 180.902C119.839 183.336 118.757 186.447 119.298 189.693L123.762 223.913C124.032 225.672 125.385 226.889 127.143 226.889C127.684 226.889 128.225 226.889 128.766 226.754C132.824 226.078 132.418 222.29 132.418 222.29L131.607 190.234L155.006 176.167C155.006 176.303 165.556 171.839 164.474 154.12Z" fill="#173D7A"/>
<path d="M153.789 97.4474C167.45 103.128 167.18 111.244 167.18 111.244C167.18 111.244 164.475 140.865 165.421 160.748C165.827 168.999 121.462 169.675 128.09 147.628C135.935 121.659 132.959 100.558 136.611 97.3121C140.263 93.9307 150.272 95.9596 153.789 97.4474Z" fill="#5793CE"/>
<path d="M158.251 104.616C157.575 107.456 153.923 108.809 150.136 107.862C146.349 106.915 143.914 103.805 144.59 101.099C145.266 98.2589 148.918 96.9064 152.706 97.8532C156.493 98.8 158.928 101.776 158.251 104.616Z" fill="#FFC2B0"/>
<path d="M152.435 108.809C151.624 108.809 150.812 108.674 150.001 108.539C145.943 107.456 143.238 104.075 144.049 100.964C144.861 97.8532 148.919 96.0948 152.976 97.1769C154.87 97.7179 156.628 98.6647 157.71 100.153C158.928 101.64 159.333 103.263 158.928 104.751C158.251 107.186 155.546 108.809 152.435 108.809ZM150.406 98.1237C147.836 98.1237 145.808 99.341 145.267 101.235C144.59 103.669 146.89 106.374 150.271 107.186C153.653 107.998 157.034 106.78 157.575 104.346C157.846 103.263 157.575 101.911 156.628 100.829C155.681 99.6115 154.194 98.8 152.57 98.3942C151.759 98.2589 151.083 98.1237 150.406 98.1237Z" fill="white"/>
<path d="M148.377 96.7711C148.377 96.7711 148.513 97.3121 148.242 101.64C148.107 102.993 152.976 104.21 154.193 102.993C155.411 101.776 154.87 100.423 155.275 95.8243C155.546 91.2255 148.377 96.7711 148.377 96.7711Z" fill="#FFC2B0"/>
<path d="M155.278 95.9595C155.278 95.9595 154.06 100.288 148.244 101.911L148.379 97.9884L155.278 95.9595Z" fill="#EA9C92"/>
<path d="M158.928 85.0037C160.416 90.6845 157.034 96.3653 151.354 97.8532C145.673 99.341 139.992 95.9596 138.504 90.2787C137.016 84.5979 140.398 78.9171 146.078 77.4292C151.624 75.9414 157.44 79.3228 158.928 85.0037Z" fill="#FFC2B0"/>
<path d="M151.084 87.9793C151.084 87.9793 145.268 90.414 141.211 90.5492C137.153 90.5492 138.1 87.1678 138.1 87.1678L150.002 85.4094L151.084 87.9793Z" fill="#EA9C92"/>
<path d="M140.127 88.6556C140.127 88.6556 145.132 86.4915 149.596 87.4383C150.678 87.7088 151.624 88.2499 152.301 89.0614C152.571 89.3319 152.842 89.6024 153.112 89.6024C153.924 89.7377 155.141 86.4915 156.764 86.4915C158.252 86.3563 159.334 87.4383 158.117 89.4672C156.899 91.496 157.305 93.6602 157.846 94.066C158.387 94.3365 164.474 89.7377 159.199 79.0523C153.788 68.367 140.127 74.183 137.963 76.3472C137.963 76.3472 135.664 78.2408 133.906 76.6177C133.77 76.4824 131.742 91.7666 140.127 88.6556Z" fill="black"/>
<path d="M159.604 132.885V140.865C159.604 141.812 159.198 142.624 158.522 143.3L142.021 158.313L143.914 161.154L165.691 145.329C166.773 144.652 167.314 143.435 167.449 142.218L168.937 128.286L159.604 132.885Z" fill="#FFC2B0"/>
<path d="M166.098 107.186C166.098 107.186 171.103 114.76 172.996 134.508C172.996 134.508 164.475 137.213 159.606 135.725C154.736 134.102 166.098 107.186 166.098 107.186Z" fill="#5793CE"/>
<path d="M158.657 116.654C158.657 116.654 156.763 127.069 156.628 132.073C156.628 133.426 157.439 134.643 158.657 135.049V116.654Z" fill="#396CAA"/>
<path d="M154.465 168.728L150.813 168.187L127.278 154.661C126.467 154.256 125.25 154.256 124.303 154.797L107.666 164.4L105.502 164.129V166.294C105.502 166.564 105.637 166.835 106.043 167.105L132.689 182.525C133.5 182.93 134.718 182.93 135.664 182.389L153.789 171.974C154.33 171.704 154.465 171.298 154.465 171.028V168.728Z" fill="#5793CE"/>
<path d="M136.747 160.072L135.123 159.125H116.728L107.666 164.4L105.502 164.129V166.294C105.502 166.564 105.637 166.835 106.043 167.105L132.689 182.525C133.095 182.795 133.636 182.795 134.177 182.795L136.747 160.072Z" fill="#396CAA"/>
<path d="M106.449 164.265L105.502 164.129V166.294C105.502 166.564 105.637 166.835 106.043 167.105L106.449 167.376V164.265Z" fill="#5793CE"/>
<path d="M132.959 182.525C133.635 182.795 134.717 182.795 135.394 182.389V178.602H132.959V182.525Z" fill="white"/>
<path d="M132.687 180.225L106.042 164.806C105.23 164.4 105.365 163.588 106.312 163.047L124.437 152.633C125.248 152.092 126.601 152.092 127.412 152.497L154.058 167.917C154.87 168.322 154.734 169.134 153.788 169.675L135.663 180.09C134.716 180.631 133.364 180.631 132.687 180.225Z" fill="white"/>
<path d="M132.148 177.926L109.966 165.212C109.29 164.806 109.425 164.265 110.101 163.859L119.84 158.449C120.516 158.043 121.598 158.043 122.275 158.313L144.457 171.028C145.133 171.433 144.998 171.974 144.322 172.38L134.583 177.791C133.907 178.196 132.825 178.196 132.148 177.926Z" fill="#D4ECFF"/>
<path d="M125.384 152.227L125.113 154.12C124.843 155.744 124.978 157.231 125.249 158.854L125.519 160.478C125.654 161.424 126.466 162.101 127.277 162.236C127.954 162.371 128.63 161.83 128.765 161.154L129.171 157.231C129.171 157.231 130.118 158.584 130.659 158.584C131.2 158.584 130.118 154.661 129.036 152.362C128.089 150.063 125.384 152.227 125.384 152.227Z" fill="#FFC2B0"/>
<path d="M134.448 123.011L131.607 128.692C130.931 130.045 130.525 131.532 130.39 133.02L129.173 152.362L125.385 152.227L123.627 130.586C123.627 129.909 123.627 129.233 123.762 128.557L125.656 117.601L134.448 123.011Z" fill="#FFC2B0"/>
<path d="M131.743 181.713L129.578 178.737L106.179 165.212C105.367 164.806 104.826 163.588 104.826 162.642V143.435L103.474 141.677L104.691 141C104.961 140.865 105.232 140.865 105.638 141L132.284 156.42C133.095 156.826 133.636 158.043 133.636 158.99V179.955C133.636 180.496 133.501 180.901 133.095 181.037L131.743 181.713Z" fill="#173D7A"/>
<path d="M115.511 170.622L113.888 169.675L104.69 153.715V143.3L103.338 141.541L104.555 140.865C104.826 140.73 105.096 140.73 105.502 140.865L132.148 156.285C132.554 156.555 132.959 156.961 133.095 157.502L115.511 170.622Z" fill="#396CAA"/>
<path d="M104.015 142.353L103.474 141.541L104.691 140.865C104.961 140.73 105.232 140.73 105.638 140.865L106.044 141.136L104.015 142.353Z" fill="#5793CE"/>
<path d="M132.418 156.555C132.959 157.096 133.5 157.908 133.5 158.854L130.93 160.342L129.713 158.178L132.418 156.555Z" fill="#274F89"/>
<path d="M130.795 157.096L104.149 141.677C103.338 141.271 102.797 141.677 102.797 142.759V163.724C102.797 164.671 103.338 165.888 104.149 166.294L130.795 181.713C131.607 182.119 132.148 181.713 132.148 180.631V159.666C132.283 158.719 131.607 157.502 130.795 157.096Z" fill="#5793CE"/>
<path d="M143.916 161.154L143.51 162.101C142.969 163.183 142.293 163.994 141.346 164.535L138.641 166.158C137.829 166.699 136.747 166.699 135.935 166.158C135.935 166.158 135.935 166.158 135.8 166.158C134.989 165.617 134.853 164.4 135.53 163.724L138.235 160.883C138.235 160.883 136.747 162.101 136.206 161.56C135.935 161.154 137.694 159.531 139.046 159.395C140.399 159.395 141.752 158.178 141.752 158.178L143.916 161.154Z" fill="#FFC2B0"/>
<path d="M136.882 97.1769C136.882 97.1769 126.737 108.133 122.68 118.277C122.68 118.277 126.196 124.499 134.582 126.934C143.104 129.368 136.882 97.1769 136.882 97.1769Z" fill="#5793CE"/>
<path d="M132.824 126.257L134.447 110.432L130.524 125.31C131.201 125.581 132.012 125.987 132.824 126.257Z" fill="#396CAA"/>
<path d="M144.456 94.8775L141.751 94.0659C141.751 94.0659 143.104 96.0948 144.997 96.6358C146.891 97.1769 147.161 95.5538 147.161 95.5538L144.456 94.8775Z" fill="white"/>
<path d="M120.65 374.861C102.39 364.311 72.7686 364.311 54.3736 374.861C36.1138 385.411 36.1138 402.589 54.3736 413.139C72.6334 423.689 102.255 423.689 120.65 413.139C138.91 402.589 138.91 385.411 120.65 374.861ZM102.796 402.724C94.4099 407.594 80.7489 407.594 72.3629 402.724C63.9769 397.855 63.9769 390.01 72.3629 385.141C80.7489 380.271 94.4099 380.271 102.796 385.141C111.182 390.01 111.182 397.855 102.796 402.724Z" fill="#D4ECFF"/>
<path d="M47.4739 368.639L64.1106 368.91C65.3279 367.287 67.0862 365.799 69.3856 364.446C78.5831 359.171 93.0557 358.765 103.065 363.229L112.939 353.896L128.223 354.167C127.411 353.626 126.735 353.22 125.923 352.679C104.688 340.37 70.1972 340.37 48.9617 352.679C45.0392 354.978 41.9283 357.413 39.3584 360.118L47.4739 368.639Z" fill="#173D7A"/>
<path d="M128.358 329.82V354.031L113.074 353.896V329.55L128.358 329.82Z" fill="#5793CE"/>
<path d="M103.2 338.883V363.229L113.074 353.896V329.55L103.2 338.883Z" fill="#173D7A"/>
<path d="M64.2454 344.563V368.775L86.1572 350.921L103.064 363.094V338.883L87.5098 331.308C87.5098 331.308 66.0038 337.936 64.9217 338.206C63.8397 338.477 64.2454 344.563 64.2454 344.563Z" fill="#173D7A"/>
<path d="M47.4746 344.293V368.639L64.2466 368.91V344.563L47.4746 344.293Z" fill="#173D7A"/>
<path d="M39.4922 335.772V360.118L47.4724 368.639V344.293L39.4922 335.772Z" fill="#5793CE"/>
<path d="M47.4748 344.293L64.1115 344.563C65.3289 342.94 67.0872 341.452 69.3866 340.1C78.5841 334.825 93.0567 334.419 103.066 338.883L112.94 329.55L128.224 329.82C127.412 329.279 126.736 328.873 125.924 328.332C104.689 316.024 70.1981 316.024 48.9626 328.332C45.0402 330.632 41.9293 333.066 39.3594 335.772L47.4748 344.293Z" fill="#D4ECFF"/>
<path d="M108.204 341.858V364.176L122.677 360.659C122.677 360.659 121.865 347.674 121.459 347.269C121.189 346.998 108.204 341.858 108.204 341.858Z" fill="#5793CE"/>
<path d="M97.2471 364.176V388.387L98.8702 390.01L109.015 384.194C109.015 384.194 107.391 365.664 107.256 365.258C106.986 364.987 97.2471 364.176 97.2471 364.176Z" fill="#173D7A"/>
<path d="M116.861 357.954L108.069 366.205C115.373 372.021 114.426 380.136 105.499 385.276C103.065 386.764 100.224 387.711 97.1133 388.522L106.176 398.126L98.1954 405.7C108.34 404.483 118.078 401.642 125.923 397.179C144.183 386.629 146.753 370.533 133.633 358.36L116.861 357.954Z" fill="#396CAA"/>
<path d="M98.1953 381.354V405.565L118.078 397.99L141.884 375.267V349.433L116.59 369.451L98.1953 381.354Z" fill="#396CAA"/>
<path d="M116.861 333.743L108.069 341.994C115.373 347.81 114.426 355.925 105.499 361.065C103.065 362.553 100.224 363.5 97.1133 364.311L106.176 373.914L98.1954 381.489C108.34 380.272 118.078 377.431 125.923 372.968C144.183 362.417 146.753 346.322 133.633 334.149L116.861 333.743Z" fill="#D4ECFF"/>
<path d="M98.1971 397.99L90.2169 389.469C82.7777 389.875 75.2033 388.522 69.5225 385.276C63.7064 381.895 61.2717 377.296 62.2185 372.832L43.2824 372.562L35.9785 364.852C29.6214 375.808 33.9496 388.387 49.0985 397.043C60.1897 403.401 74.9328 406.512 89.4054 406.241L98.1971 397.99Z" fill="#396CAA"/>
<path d="M89.405 381.895V406.241L33.1377 374.996V350.785L41.3884 354.031L89.405 381.895Z" fill="#396CAA"/>
<path d="M98.1961 373.779V397.99L89.4043 406.241V381.895L98.1961 373.779Z" fill="#173D7A"/>
<path d="M98.1981 373.779L90.2179 365.258C82.7787 365.664 75.2043 364.311 69.5234 361.065C63.7073 357.683 61.2727 353.085 62.2195 348.621L43.2834 348.351L35.9795 340.641C29.6224 351.597 33.9506 364.176 49.0995 372.832C60.1906 379.189 74.9338 382.3 89.4064 382.03L98.1981 373.779Z" fill="#5793CE"/>
<path d="M131.066 45.2379L132.554 42.8032C132.554 42.8032 133.772 43.4795 135.124 43.0737C136.206 42.8032 137.018 41.8564 137.829 40.2333C140.399 34.823 145.133 34.4172 147.297 34.9583L146.621 37.6634L147.027 36.3108L146.756 37.6634C146.351 37.5282 142.699 36.8519 140.534 41.3154C139.452 43.6148 137.965 45.1026 136.071 45.6436C133.366 46.4552 131.337 45.3731 131.066 45.2379Z" fill="#5793CE"/>
<path d="M85.7538 138.701C78.5852 138.701 72.6338 132.885 72.6338 125.581C72.6338 118.412 78.4499 112.461 85.7538 112.461C93.0577 112.461 98.8738 118.277 98.8738 125.581C98.8738 132.75 92.9225 138.701 85.7538 138.701ZM85.7538 115.437C80.073 115.437 75.6095 120.035 75.6095 125.581C75.6095 131.262 80.2082 135.725 85.7538 135.725C91.2994 135.725 95.8982 131.127 95.8982 125.581C96.0334 120.035 91.4346 115.437 85.7538 115.437Z" fill="#D4ECFF"/>
<path d="M9.19752 319C4.05772 319 0 314.807 0 309.802C0 304.662 4.19298 300.605 9.19752 300.605C14.3373 300.605 18.3951 304.798 18.3951 309.802C18.3951 314.807 14.3373 319 9.19752 319ZM9.19752 303.31C5.68081 303.31 2.8404 306.15 2.8404 309.667C2.8404 313.184 5.68081 316.024 9.19752 316.024C12.7142 316.024 15.5547 313.184 15.5547 309.667C15.5547 306.15 12.7142 303.31 9.19752 303.31Z" fill="#5793CE"/>
<path d="M66.6818 214.986L60.46 202.272L73.1742 196.05L79.3961 208.765L66.6818 214.986ZM64.2472 203.625L68.0344 211.334L75.7441 207.547L71.9569 199.838L64.2472 203.625Z" fill="#5793CE"/>
<path d="M381.383 75.0146L375.557 77.8791L378.421 83.7053L384.247 80.8409L381.383 75.0146Z" fill="#5793CE"/>
<path d="M267.397 4.37465e-06L257.833 9.56409L259.841 11.5725L269.406 2.00846L267.397 4.37465e-06Z" fill="#D4ECFF"/>
<path d="M259.749 0.0032253L257.74 2.01169L267.304 11.5758L269.313 9.56731L259.749 0.0032253Z" fill="#D4ECFF"/>
<path d="M365.467 10.6118C365.467 14.2638 362.492 17.3747 358.704 17.3747C355.052 17.3747 351.941 14.399 351.941 10.6118C351.941 6.95984 354.917 3.84891 358.704 3.84891C362.356 3.84891 365.467 6.82458 365.467 10.6118Z" fill="#D4ECFF"/>
<path d="M184.627 386.899C184.627 389.063 182.869 390.822 180.705 390.822C178.541 390.822 176.782 389.063 176.782 386.899C176.782 384.735 178.541 382.977 180.705 382.977C182.869 383.112 184.627 384.87 184.627 386.899Z" fill="#D4ECFF"/>
<path d="M334.628 394.474C339.035 394.474 342.608 390.901 342.608 386.493C342.608 382.086 339.035 378.513 334.628 378.513C330.22 378.513 326.647 382.086 326.647 386.493C326.647 390.901 330.22 394.474 334.628 394.474Z" fill="#D4ECFF"/>
<path d="M55.185 234.193L26.6456 217.692C26.1046 217.421 25.5636 217.286 25.1578 217.556L22.3174 219.179C22.3174 219.179 23.5347 219.585 24.211 219.856V240.685C24.211 242.444 25.2931 244.337 26.5104 245.014L53.8324 260.839V263.273L56.6729 261.65C57.0786 261.38 57.4844 260.704 57.4844 259.757V238.521C57.4844 236.898 56.5376 234.869 55.185 234.193Z" fill="#D3008D"/>
<path d="M52.4794 263.138L23.94 246.637C22.7227 245.96 21.6406 243.932 21.6406 242.309V221.073C21.6406 219.315 22.7227 218.638 23.94 219.315L52.4794 235.816C53.6967 236.492 54.7788 238.521 54.7788 240.144V261.38C54.7788 263.138 53.6967 263.95 52.4794 263.138Z" fill="#FF2C9C"/>
<path d="M33.4083 239.333C33.4083 240.55 32.5968 241.091 31.5147 240.415C30.4326 239.739 29.6211 238.251 29.6211 237.033C29.6211 235.816 30.4326 235.275 31.5147 235.951C32.5968 236.628 33.4083 238.116 33.4083 239.333Z" fill="white"/>
<path d="M39.2257 242.714C39.2257 243.932 38.4142 244.473 37.3321 243.796C36.2501 243.12 35.4385 241.632 35.4385 240.415C35.4385 239.198 36.2501 238.657 37.3321 239.333C38.4142 240.009 39.2257 241.497 39.2257 242.714Z" fill="white"/>
<path d="M45.1769 246.096C45.1769 247.313 44.3653 247.854 43.2833 247.178C42.2012 246.501 41.3896 245.014 41.3896 243.796C41.3896 242.579 42.2012 242.038 43.2833 242.714C44.2301 243.391 45.1769 244.878 45.1769 246.096Z" fill="white"/>
<path d="M329.487 38.8807L300.813 22.3793C300.272 22.1088 299.731 21.9735 299.325 22.244L296.484 23.8671C296.484 23.8671 297.702 24.2729 298.378 24.5434V45.3731C298.378 47.1315 299.46 49.0251 300.677 49.7014L327.999 65.5265V67.9612L330.84 66.3381C331.246 66.0676 331.651 65.3913 331.651 64.4445V43.209C331.787 41.5859 330.705 39.557 329.487 38.8807Z" fill="#5793CE"/>
<path d="M326.648 67.8259L297.973 51.3245C296.756 50.6482 295.674 48.6193 295.674 46.9962V25.7607C295.674 24.0024 296.756 23.3261 297.973 24.0024L326.648 40.5038C327.865 41.1801 328.947 43.209 328.947 44.8321V66.0676C328.947 67.8259 327.865 68.6375 326.648 67.8259Z" fill="#D4ECFF"/>
<path d="M307.577 44.0205C307.577 45.2379 306.766 45.7789 305.684 45.1026C304.602 44.4263 303.79 42.9385 303.79 41.7212C303.79 40.5038 304.602 39.9628 305.684 40.6391C306.766 41.3154 307.577 42.8032 307.577 44.0205Z" fill="white"/>
<path d="M313.529 47.402C313.529 48.6193 312.718 49.1604 311.636 48.4841C310.554 47.8078 309.742 46.32 309.742 45.1026C309.742 43.8853 310.554 43.3443 311.636 44.0206C312.583 44.6969 313.529 46.1847 313.529 47.402Z" fill="white"/>
<path d="M319.344 50.7834C319.344 52.0008 318.532 52.5418 317.45 51.8655C316.368 51.1892 315.557 49.7014 315.557 48.4841C315.557 47.2667 316.368 46.7257 317.45 47.402C318.532 48.0783 319.344 49.5661 319.344 50.7834Z" fill="white"/>
<path d="M326.919 396.367L343.691 386.629L360.463 396.367L343.691 405.971L326.919 396.367Z" fill="#D4ECFF"/>
<path d="M362.491 375.538L379.398 365.799L396.17 375.538L379.398 385.141L362.491 375.538Z" fill="#D4ECFF"/>
<path d="M398.064 355.114L414.836 345.51L431.608 355.114L414.836 364.852L398.064 355.114Z" fill="#D4ECFF"/>
<path d="M379.398 375.538V323.869L362.491 314.13V365.799L379.398 375.538Z" fill="#C13D1A"/>
<path d="M379.398 323.869L396.17 314.13V365.799L379.398 375.538V323.869Z" fill="#D3008D"/>
<path d="M379.398 375.538V323.869L362.491 314.13V365.799L379.398 375.538Z" fill="#FF2C9C"/>
<path d="M343.691 396.367V367.287L326.919 357.548V386.629L343.691 396.367Z" fill="#FF2C9C"/>
<path d="M343.692 367.287L360.464 357.548V386.629L343.692 396.367V367.287Z" fill="#D3008D"/>
<path d="M326.919 357.548L343.691 347.945L360.463 357.548L343.691 367.287L326.919 357.548Z" fill="#FF2C9C"/>
<path d="M414.835 355.114V284.103L398.063 274.365V345.51L414.835 355.114Z" fill="#FF2C9C"/>
<path d="M414.837 284.103L431.609 274.365V345.51L414.837 355.114V284.103Z" fill="#D3008D"/>
<path d="M398.063 274.365L414.835 264.626L431.607 274.365L414.835 284.103L398.063 274.365Z" fill="#FF2C9C"/>
<path d="M362.492 314.13L379.399 304.392L396.171 314.13L379.399 323.869L362.492 314.13Z" fill="#FF2C9C"/>
</svg>
